<?xml version="1.0" encoding="iso-8859-1"?>
<!-- Generator: Adobe Illustrator 19.0.0, SVG Export Plug-In . SVG Version: 6.00 Build 0)  -->
<svg version="1.1" id="Layer_1" xmlns="http://www.w3.org/2000/svg" xmlns:xlink="http://www.w3.org/1999/xlink" x="0px" y="0px"
	 viewBox="0 0 488 488" style="enable-background:new 0 0 488 488;" xml:space="preserve">
<g>
	<rect x="32" y="16" style="fill:#E94545;" width="32" height="32"/>
	<path style="fill:#E94545;" d="M384,260v28c0,4-4,8-8,8h-8c-4,0-8-4-8-8v-28c0-6.4,5.6-12,12-12S384,253.6,384,260z"/>
</g>
<path style="fill:#D9CDC1;" d="M448,288c0-51.2-33.6-93.6-76-96c51.2,2.4,92,44,92,96v88c0,52-40.8,93.6-92,96
	c42.4-2.4,76-44.8,76-96V288z"/>
<path style="fill:#FFF8EF;" d="M344,288c0,13.6,10.4,24,24,24h8c13.6,0,24-10.4,24-24v-28c0-15.2-12.8-28-28-28s-28,12.8-28,28V288z
	 M372,192c42.4,2.4,76,44.8,76,96v88c0,51.2-33.6,93.6-76,96c-1.6,0-2.4,0-4,0s-2.4,0-4,0c-42.4-2.4-76-44.8-76-96v-88
	c0-51.2,33.6-93.6,76-96c1.6,0,2.4,0,4,0S370.4,192,372,192z"/>
<path style="fill:#42210B;" d="M384,288v-28c0-6.4-5.6-12-12-12s-12,5.6-12,12v28c0,4,4,8,8,8h8C380,296,384,292,384,288z M368,312
	c-13.6,0-24-10.4-24-24v-28c0-15.2,12.8-28,28-28s28,12.8,28,28v28c0,13.6-10.4,24-24,24H368z"/>
<g>
	<path style="fill:#D9CDC1;" d="M364,472c-51.2-2.4-92-44.8-92-96v-88c0-52,40.8-93.6,92-96c-42.4,2.4-76,44.8-76,96v88
		C288,427.2,321.6,469.6,364,472z"/>
	<rect x="64" y="64" style="fill:#D9CDC1;" width="8" height="72"/>
</g>
<polygon style="fill:#FFF8EF;" points="64,64 64,136 56,136 40,136 32,136 32,64 "/>
<rect x="24" y="64" style="fill:#D9CDC1;" width="8" height="72"/>
<path style="fill:#42210B;" d="M64,48V16H32v32H64z M72,136V64h-8H32h-8v72h8h8h16h8H72z M88,144c0,4-3.2,8-8,8H56v224
	c0,39.2,35.2,72,76,72c39.2,0,68-31.2,68-72V96c0-48,42.4-88,92-88c48,0,84,37.6,84,88v80c58.4,4,104,52.8,104,112v88
	c0,61.6-50.4,112-112,112s-112-50.4-112-112v-88c0-59.2,46.4-107.2,104-112V96c0-40.8-29.6-72-68-72c-40.8,0-76,32.8-76,72v280
	c0,50.4-36,88-84,88c-49.6,0-92-40-92-88V152H16c-4,0-8-4-8-8V56c0-4.8,4-8,8-8V8c0-4,4-8,8-8h48c4.8,0,8,4,8,8v40c4.8,0,8,3.2,8,8
	V144z M272,376c0,51.2,40.8,93.6,92,96c1.6,0,2.4,0,4,0s2.4,0,4,0c51.2-2.4,92-44,92-96v-88c0-52-40.8-93.6-92-96c-1.6,0-2.4,0-4,0
	s-2.4,0-4,0c-51.2,2.4-92,44-92,96V376z"/>
<g>
</g>
<g>
</g>
<g>
</g>
<g>
</g>
<g>
</g>
<g>
</g>
<g>
</g>
<g>
</g>
<g>
</g>
<g>
</g>
<g>
</g>
<g>
</g>
<g>
</g>
<g>
</g>
<g>
</g>
</svg>
